<svg width="30" height="30" viewBox="0 0 30 30" fill="none" xmlns="http://www.w3.org/2000/svg">
<path d="M1.41957 4.92473C1.65524 4.83739 1.90742 4.78259 2.17391 4.78259H27.8261C28.0926 4.78259 28.3448 4.83739 28.5804 4.92479L17.087 15.7522C15.9169 16.8552 14.0834 16.8552 12.913 15.7522L1.41957 4.92473ZM29.6795 24.1652C29.8786 23.8369 30 23.4556 30 23.0435V6.95651C30 6.66437 29.9404 6.38649 29.8357 6.13176L19.08 16.2639L29.6795 24.1652ZM18.1074 17.1652C17.2148 17.93 16.1091 18.3178 15 18.3178C13.8909 18.3178 12.7852 17.9304 11.8926 17.1652L1.32302 25.0439C1.58478 25.1552 1.87174 25.2174 2.17391 25.2174H27.8261C28.1283 25.2174 28.4152 25.1552 28.677 25.0439L18.1074 17.1652ZM0.164386 6.1317C0.0595908 6.38649 0 6.66431 0 6.95651V23.0435C0 23.4556 0.121292 23.8369 0.32046 24.1652L10.92 16.2639L0.164386 6.1317Z" fill="black"/>
</svg>
