<svg width="30" height="30" viewBox="0 0 30 30" fill="none" xmlns="http://www.w3.org/2000/svg">
<g clip-path="url(#clip0_130_203)">
<path fill-rule="evenodd" clip-rule="evenodd" d="M25.5816 4.35966C22.7741 1.5498 19.0403 0.00157932 15.0624 0C6.86602 0 0.195165 6.6683 0.191885 14.8647C0.190792 17.4848 0.87557 20.0423 2.17681 22.2966L0.0671997 30L7.95029 27.9328C10.1222 29.1171 12.5677 29.7412 15.0565 29.7422H15.0626C23.2581 29.7422 29.9296 23.0731 29.9329 14.8766C29.9345 10.9045 28.3892 7.16952 25.5816 4.35966ZM15.0626 27.2315H15.0575C12.8397 27.2306 10.6645 26.635 8.76684 25.5093L8.31547 25.2415L3.6376 26.4682L4.88624 21.9087L4.59232 21.4413C3.35511 19.474 2.70163 17.2002 2.7026 14.8657C2.70532 8.05313 8.24991 2.51072 15.0675 2.51072C18.3687 2.51197 21.472 3.79888 23.8055 6.13433C26.1391 8.46978 27.4235 11.5742 27.4222 14.8756C27.4194 21.6887 21.8749 27.2315 15.0626 27.2315ZM21.8421 17.9777C21.4705 17.7918 19.6438 16.8932 19.3032 16.7692C18.9626 16.6453 18.7149 16.5833 18.4672 16.9552C18.2195 17.327 17.5075 18.1637 17.2906 18.4115C17.0739 18.6595 16.8572 18.6905 16.4856 18.5045C16.1141 18.3186 14.9169 17.9264 13.4976 16.6609C12.3931 15.6761 11.6474 14.4596 11.4306 14.0878C11.2139 13.7159 11.4076 13.5148 11.5936 13.3297C11.7607 13.1632 11.9651 12.8959 12.1509 12.6789C12.3367 12.462 12.3986 12.3071 12.5224 12.0592C12.6463 11.8113 12.5844 11.5944 12.4915 11.4085C12.3986 11.2225 11.6555 9.39426 11.3459 8.65056C11.0443 7.92625 10.738 8.02425 10.5099 8.01291C10.2934 8.00214 10.0454 7.99984 9.79777 7.99984C9.55006 7.99984 9.14753 8.09281 8.80693 8.46464C8.46636 8.83651 7.50654 9.73515 7.50654 11.5634C7.50654 13.3916 8.83791 15.1579 9.0237 15.4058C9.20945 15.6537 11.6437 19.4056 15.371 21.0145C16.2575 21.3972 16.9496 21.6257 17.4892 21.797C18.3793 22.0796 19.1893 22.0397 19.8295 21.9441C20.5434 21.8375 22.0278 21.0455 22.3375 20.1779C22.6471 19.3102 22.6471 18.5665 22.5542 18.4116C22.4614 18.2566 22.2137 18.1637 21.8421 17.9777Z" fill="black"/>
</g>
<defs>
<clipPath id="clip0_130_203">
<rect width="30" height="30" fill="white"/>
</clipPath>
</defs>
</svg>
