<svg width="50" height="50" viewBox="0 0 50 50" fill="none" xmlns="http://www.w3.org/2000/svg">
<circle cx="25" cy="25" r="25" fill="#F9F9F9"/>
<path d="M13.5858 33.5858C12.8047 34.3668 12.8047 35.6332 13.5858 36.4142C14.3668 37.1953 15.6332 37.1953 16.4142 36.4142L15 35L13.5858 33.5858ZM36 16C36 14.8954 35.1046 14 34 14L16 14C14.8954 14 14 14.8954 14 16C14 17.1046 14.8954 18 16 18H32L32 34C32 35.1046 32.8954 36 34 36C35.1046 36 36 35.1046 36 34L36 16ZM15 35L16.4142 36.4142L35.4142 17.4142L34 16L32.5858 14.5858L13.5858 33.5858L15 35Z" fill="black"/>
</svg>
