<svg width="50" height="50" viewBox="0 0 50 50" fill="none" xmlns="http://www.w3.org/2000/svg">
<path d="M25 0C11.1864 0 0 11.1864 0 25C0 38.8136 11.1864 50 25 50C38.8136 50 50 38.8136 50 25C50 11.1864 38.8136 0 25 0ZM21.6949 37.4364C19.1737 39.9576 15.0847 39.9576 12.5636 37.4364C10.0424 34.9153 10.0424 30.8263 12.5636 28.3051L19.0254 21.822C21.5466 19.3008 25.6356 19.3008 28.1568 21.822C28.2203 21.8856 28.2839 21.9492 28.3475 22.0339C28.3898 22.0551 28.4322 22.0975 28.4534 22.1398C28.5593 22.2458 28.6441 22.3517 28.7076 22.4788L28.7288 22.5C29.0466 23.0932 28.9407 23.8347 28.4534 24.322C27.9661 24.8093 27.2034 24.9153 26.6314 24.5975C26.589 24.6398 26.1864 24.2373 25.9746 24.0254C24.661 22.7119 22.5424 22.6907 21.2288 24.0254L14.7458 30.5085C13.4322 31.822 13.4322 33.9619 14.7458 35.2754C16.0593 36.589 18.1992 36.589 19.5127 35.2754L23.411 31.3771C24.767 32.0339 26.3559 32.0551 27.7119 31.4407L21.6949 37.4364ZM37.4364 21.6949L30.9746 28.178C28.4534 30.6992 24.3644 30.6992 21.8432 28.178C21.7797 28.1144 21.7161 28.0297 21.6525 27.9661C21.6102 27.9449 21.5678 27.9025 21.5466 27.8602C21.4407 27.7542 21.3559 27.6483 21.2924 27.5212L21.2712 27.5C20.9534 26.9068 21.0593 26.1653 21.5466 25.678C22.0339 25.1907 22.7966 25.1059 23.3686 25.4025C23.411 25.3602 23.8136 25.7627 24.0254 25.9746C25.339 27.2881 27.4576 27.3093 28.7712 25.9746L35.2542 19.4915C36.5678 18.178 36.5678 16.0381 35.2542 14.7246C33.9407 13.411 31.8008 13.411 30.4873 14.7246L26.589 18.6441C25.2331 17.9873 23.6441 17.9661 22.2881 18.5805L28.3051 12.5636C30.8263 10.0424 34.9153 10.0424 37.4364 12.5636C39.9576 15.0847 39.9576 19.1737 37.4364 21.6949Z" fill="#E85002"/>
</svg>
