<svg width="61" height="34" viewBox="0 0 61 34" fill="none" xmlns="http://www.w3.org/2000/svg">
<rect width="60.2727" height="34" rx="15.4545" fill="#E85002"/>
<path d="M12.3638 15.4545C11.5102 15.4545 10.8183 16.1465 10.8183 17C10.8183 17.8535 11.5102 18.5455 12.3638 18.5455V17V15.4545ZM49.002 18.0928C49.6056 17.4893 49.6056 16.5107 49.002 15.9072L39.1668 6.07199C38.5633 5.46845 37.5847 5.46845 36.9812 6.07199C36.3777 6.67552 36.3777 7.65405 36.9812 8.25759L45.7236 17L36.9812 25.7424C36.3777 26.3459 36.3777 27.3245 36.9812 27.928C37.5847 28.5316 38.5633 28.5316 39.1668 27.928L49.002 18.0928ZM12.3638 17V18.5455H47.9092V17V15.4545H12.3638V17Z" fill="white"/>
</svg>
