<svg width="61" height="34" viewBox="0 0 61 34" fill="none" xmlns="http://www.w3.org/2000/svg">
<rect width="60.2727" height="34" rx="15.4545" fill="#E85002"/>
<path d="M46.3638 18.5455C47.2173 18.5455 47.9092 17.8535 47.9092 17C47.9092 16.1465 47.2173 15.4545 46.3638 15.4545V17V18.5455ZM9.72551 15.9072C9.12197 16.5107 9.12197 17.4893 9.72551 18.0928L19.5607 27.928C20.1643 28.5316 21.1428 28.5316 21.7463 27.928C22.3499 27.3245 22.3499 26.3459 21.7463 25.7424L13.0039 17L21.7463 8.25759C22.3499 7.65405 22.3499 6.67552 21.7463 6.07199C21.1428 5.46845 20.1643 5.46845 19.5607 6.07199L9.72551 15.9072ZM46.3638 17V15.4545L10.8183 15.4545V17V18.5455L46.3638 18.5455V17Z" fill="white"/>
</svg>
